<svg width="162" height="30" viewBox="0 0 162 30" fill="none" xmlns="http://www.w3.org/2000/svg">
<path d="M0 15C0 2.55 2.55446 0 15.0263 0C27.4981 0 30.0525 2.55 30.0525 15C30.0525 27.45 27.4981 30 15.0263 30C2.55446 30 0 27.45 0 15Z" fill="#A0E9E3"/>
<path d="M15.9955 24.375L10.0376 24.3562C9.91483 24.3528 9.79827 24.3017 9.71268 24.2139C9.62709 24.126 9.57923 24.0082 9.57928 23.8856V22.5356C9.58027 22.4115 9.63037 22.2927 9.71868 22.2053C9.80699 22.1178 9.92634 22.0687 10.0507 22.0687L16.0011 22.0875C17.2771 22.0331 18.5277 21.7138 19.6732 21.15C21.9421 19.9894 23.0935 17.925 23.0935 15.0112C23.0935 12.0975 21.9421 10.0331 19.6732 8.8725C18.527 8.30881 17.2758 7.98953 15.9992 7.935L7.75358 7.91625C7.69192 7.916 7.63091 7.90364 7.57403 7.87985C7.51715 7.85607 7.46553 7.82133 7.4221 7.77763C7.37867 7.73393 7.34429 7.68212 7.32092 7.62515C7.29755 7.56819 7.28565 7.50718 7.28589 7.44562V6.09562C7.28589 5.97145 7.33504 5.85231 7.42265 5.76416C7.51025 5.67601 7.6292 5.62599 7.75358 5.625L15.9992 5.64375C17.6058 5.69718 19.183 6.08885 20.6273 6.79312C22.7949 7.875 25.3775 10.1794 25.3775 15.0094C25.3775 19.8394 22.7949 22.1456 20.6273 23.2256C19.1818 23.9304 17.6033 24.3221 15.9955 24.375V24.375Z" fill="#020452"/>
<path d="M14.5022 9.72937H5.8959C5.63656 9.72937 5.42633 9.93924 5.42633 10.1981V11.5481C5.42633 11.807 5.63656 12.0169 5.8959 12.0169H14.5022C14.7615 12.0169 14.9718 11.807 14.9718 11.5481V10.1981C14.9718 9.93924 14.7615 9.72937 14.5022 9.72937Z" fill="#020452"/>
<path d="M15.4564 13.845H6.85012C6.59079 13.845 6.38055 14.0549 6.38055 14.3138V15.6638C6.38055 15.9226 6.59079 16.1325 6.85012 16.1325H15.4564C15.7158 16.1325 15.926 15.9226 15.926 15.6638V14.3138C15.926 14.0549 15.7158 13.845 15.4564 13.845Z" fill="#020452"/>
<path d="M16.4106 17.9606H7.80429C7.54495 17.9606 7.33472 18.1705 7.33472 18.4294V19.7794C7.33472 20.0383 7.54495 20.2481 7.80429 20.2481H16.4106C16.6699 20.2481 16.8802 20.0383 16.8802 19.7794V18.4294C16.8802 18.1705 16.6699 17.9606 16.4106 17.9606Z" fill="#020452"/>
<path d="M38.7828 5.38688V25.605C38.7828 25.7045 38.7432 25.7998 38.6728 25.8702C38.6023 25.9405 38.5068 25.98 38.4072 25.98H34.9455C34.8459 25.98 34.7503 25.9405 34.6799 25.8702C34.6094 25.7998 34.5698 25.7045 34.5698 25.605V5.38688C34.5698 5.28742 34.6094 5.19204 34.6799 5.12171C34.7503 5.05138 34.8459 5.01188 34.9455 5.01188H38.4072C38.5068 5.01188 38.6023 5.05138 38.6728 5.12171C38.7432 5.19204 38.7828 5.28742 38.7828 5.38688ZM54.7351 10.9744C55.9572 12.2244 56.5689 13.9744 56.5701 16.2244V25.6125C56.5701 25.712 56.5306 25.8073 56.4601 25.8777C56.3897 25.948 56.2941 25.9875 56.1945 25.9875H52.7328C52.6332 25.9875 52.5376 25.948 52.4672 25.8777C52.3967 25.8073 52.3572 25.712 52.3572 25.6125V16.8C52.3572 15.4788 52.026 14.4625 51.3635 13.7513C50.7011 13.04 49.7958 12.68 48.6476 12.6713C47.4843 12.6713 46.5664 13.0269 45.894 13.7381C45.2216 14.4494 44.8872 15.4656 44.891 16.7869V25.5994C44.891 25.6988 44.8514 25.7942 44.781 25.8645C44.7105 25.9349 44.615 25.9744 44.5153 25.9744H41.0574C40.9578 25.9744 40.8622 25.9349 40.7918 25.8645C40.7213 25.7942 40.6818 25.6988 40.6818 25.5994V9.7125C40.6818 9.61305 40.7213 9.51766 40.7918 9.44734C40.8622 9.37701 40.9578 9.3375 41.0574 9.3375H44.5153C44.615 9.3375 44.7105 9.37701 44.781 9.44734C44.8514 9.51766 44.891 9.61305 44.891 9.7125V10.9013C44.8911 10.9391 44.9026 10.9759 44.9241 11.0071C44.9456 11.0382 44.976 11.0622 45.0113 11.0757C45.0467 11.0893 45.0853 11.0919 45.1221 11.0832C45.159 11.0745 45.1923 11.0549 45.2178 11.0269C45.7355 10.4763 46.3547 10.0306 47.0416 9.71438C47.9417 9.29826 48.9235 9.08814 49.9154 9.09938C51.9051 9.09813 53.5117 9.72313 54.7351 10.9744ZM72.0472 6.30375C73.6766 7.1207 75.0275 8.40068 75.9296 9.9825C76.8425 11.5775 77.2989 13.425 77.2989 15.525C77.2989 17.625 76.8425 19.4625 75.9296 21.0375C75.0207 22.607 73.6709 23.8761 72.0472 24.6881C70.3718 25.5494 68.4309 25.98 66.2245 25.98H59.258C59.1583 25.98 59.0628 25.9405 58.9923 25.8702C58.9219 25.7998 58.8823 25.7045 58.8823 25.605V5.38688C58.8823 5.28742 58.9219 5.19204 58.9923 5.12171C59.0628 5.05138 59.1583 5.01188 59.258 5.01188H66.2245C68.4321 5.01188 70.373 5.4425 72.0472 6.30375V6.30375ZM71.1869 20.6025C72.389 19.4013 72.9907 17.7088 72.992 15.525C72.9932 13.3413 72.3915 11.6344 71.1869 10.4044C69.9836 9.17313 68.2781 8.55688 66.0705 8.55563H63.471C63.3713 8.55563 63.2758 8.59514 63.2053 8.66546C63.1349 8.73579 63.0953 8.83117 63.0953 8.93063V22.0294C63.0953 22.1288 63.1349 22.2242 63.2053 22.2945C63.2758 22.3649 63.3713 22.4044 63.471 22.4044H66.0743C68.2819 22.4044 69.9861 21.8038 71.1869 20.6025V20.6025ZM95.1106 18.9206H83.2925C83.2661 18.9205 83.2401 18.9259 83.216 18.9365C83.1919 18.947 83.1703 18.9626 83.1525 18.982C83.1348 19.0015 83.1214 19.0244 83.1132 19.0494C83.1049 19.0743 83.102 19.1007 83.1047 19.1269C83.2299 20.2306 83.6443 21.1056 84.3481 21.7519C85.0935 22.4343 86.0755 22.8008 87.0866 22.7738C88.6118 22.7738 89.7081 22.1363 90.3755 20.8613C90.3912 20.831 90.4149 20.8055 90.444 20.7877C90.4731 20.7698 90.5066 20.7603 90.5408 20.76H94.7143C94.744 20.76 94.7732 20.7671 94.7996 20.7805C94.826 20.794 94.8488 20.8135 94.8662 20.8374C94.8836 20.8614 94.8951 20.8891 94.8997 20.9184C94.9043 20.9476 94.9019 20.9775 94.8927 21.0056C94.4004 22.488 93.4609 23.7821 92.2031 24.7106C90.8394 25.7369 89.164 26.25 87.1768 26.25C85.6683 26.2751 84.1794 25.9074 82.8567 25.1831C81.5937 24.4836 80.5594 23.4356 79.8778 22.1644C79.1456 20.7789 78.7779 19.2305 78.809 17.6644C78.809 15.9406 79.1603 14.4288 79.8627 13.1288C80.5318 11.8632 81.5568 10.8205 82.8116 10.1288C84.1436 9.44265 85.6198 9.08215 87.1187 9.07693C88.6175 9.07172 90.0962 9.42193 91.4329 10.0988C92.6684 10.76 93.6831 11.7676 94.3518 12.9975C95.0631 14.3222 95.4208 15.8073 95.3905 17.31C95.3935 17.7992 95.3615 18.2879 95.2947 18.7725C95.2857 18.8145 95.2624 18.8521 95.2289 18.8791C95.1954 18.9061 95.1537 18.9207 95.1106 18.9206V18.9206ZM90.8338 16.0969C90.8836 16.0969 90.9314 16.0771 90.9666 16.042C91.0018 16.0068 91.0216 15.9591 91.0216 15.9094C91.0067 15.4487 90.8953 14.9962 90.6943 14.5812C90.4934 14.1662 90.2076 13.7979 89.8552 13.5C89.0742 12.8422 88.078 12.4945 87.0566 12.5231C86.0929 12.4932 85.1536 12.8281 84.427 13.4606C83.7377 14.0946 83.2881 14.946 83.1535 15.8719C83.1491 15.8989 83.1507 15.9265 83.1581 15.9529C83.1656 15.9792 83.1787 16.0036 83.1966 16.0243C83.2145 16.045 83.2367 16.0616 83.2617 16.0729C83.2867 16.0841 83.3139 16.0897 83.3413 16.0894L90.8338 16.0969ZM142.819 18.9206H131.001C130.975 18.9205 130.948 18.9259 130.924 18.9365C130.9 18.947 130.879 18.9626 130.861 18.982C130.843 19.0015 130.83 19.0244 130.822 19.0494C130.813 19.0743 130.81 19.1007 130.813 19.1269C130.938 20.2306 131.353 21.1056 132.056 21.7519C132.802 22.4343 133.784 22.8008 134.795 22.7738C136.32 22.7738 137.416 22.1363 138.084 20.8613C138.1 20.831 138.123 20.8055 138.152 20.7877C138.182 20.7698 138.215 20.7603 138.249 20.76H142.423C142.453 20.7585 142.483 20.7644 142.511 20.7772C142.539 20.79 142.563 20.8093 142.581 20.8335C142.6 20.8577 142.612 20.886 142.617 20.916C142.622 20.946 142.62 20.9767 142.611 21.0056C142.118 22.488 141.179 23.7821 139.921 24.7106C138.551 25.7369 136.872 26.25 134.885 26.25C133.377 26.2751 131.888 25.9074 130.565 25.1831C129.302 24.4836 128.268 23.4356 127.586 22.1644C126.854 20.7789 126.486 19.2305 126.517 17.6644C126.517 15.9406 126.869 14.4288 127.571 13.1288C128.24 11.8632 129.265 10.8205 130.52 10.1288C131.852 9.44265 133.328 9.08215 134.827 9.07693C136.326 9.07172 137.805 9.42193 139.141 10.0988C140.377 10.76 141.391 11.7676 142.06 12.9975C142.772 14.3222 143.129 15.8073 143.099 17.31C143.102 17.7992 143.07 18.2879 143.003 18.7725C142.994 18.8145 142.971 18.8521 142.937 18.8791C142.904 18.9061 142.862 18.9207 142.819 18.9206V18.9206ZM138.542 16.0969C138.592 16.0969 138.64 16.0771 138.675 16.042C138.71 16.0068 138.73 15.9591 138.73 15.9094C138.715 15.4487 138.604 14.9962 138.403 14.5812C138.202 14.1662 137.916 13.7979 137.564 13.5C136.783 12.8422 135.786 12.4945 134.765 12.5231C133.801 12.4932 132.862 12.8281 132.135 13.4606C131.446 14.0946 130.996 14.946 130.862 15.8719C130.857 15.8989 130.859 15.9265 130.867 15.9529C130.874 15.9792 130.887 16.0036 130.905 16.0243C130.923 16.045 130.945 16.0616 130.97 16.0729C130.995 16.0841 131.022 16.0897 131.05 16.0894L138.542 16.0969ZM103.415 9.8175C104.424 9.30358 105.546 9.04598 106.679 9.0675C108.042 9.05247 109.381 9.41881 110.546 10.125C111.72 10.8477 112.668 11.8827 113.285 13.1138C113.956 14.4063 114.292 15.9063 114.292 17.6138C114.321 19.1761 113.976 20.7228 113.285 22.125C112.67 23.3733 111.723 24.4283 110.546 25.1738C109.389 25.8931 108.05 26.2666 106.686 26.25C105.554 26.2755 104.433 26.0231 103.422 25.515C102.697 25.1422 102.049 24.6372 101.51 24.0263C101.485 23.9972 101.452 23.9765 101.415 23.9668C101.378 23.9571 101.339 23.9589 101.303 23.9719C101.267 23.9849 101.236 24.0086 101.214 24.0398C101.192 24.0709 101.18 24.1081 101.179 24.1463V25.605C101.179 25.7045 101.14 25.7998 101.069 25.8702C100.999 25.9405 100.903 25.98 100.804 25.98H97.3345C97.2349 25.98 97.1393 25.9405 97.0689 25.8702C96.9984 25.7998 96.9589 25.7045 96.9589 25.605V4.125C96.9589 4.02554 96.9984 3.93016 97.0689 3.85984C97.1393 3.78951 97.2349 3.75 97.3345 3.75H100.796C100.896 3.75 100.991 3.78951 101.062 3.85984C101.132 3.93016 101.172 4.02554 101.172 4.125V11.2106C101.172 11.2488 101.184 11.2859 101.206 11.3171C101.228 11.3483 101.26 11.3719 101.295 11.385C101.331 11.398 101.37 11.3998 101.407 11.3901C101.444 11.3804 101.478 11.3596 101.502 11.3306C102.033 10.7051 102.683 10.1908 103.415 9.8175V9.8175ZM109.372 15C108.996 14.3051 108.433 13.728 107.748 13.3331C107.082 12.9575 106.33 12.7634 105.565 12.7706C104.808 12.7695 104.065 12.9723 103.415 13.3575C102.728 13.7609 102.165 14.3446 101.788 15.045C101.362 15.8491 101.149 16.7492 101.172 17.6588C101.149 18.5683 101.362 19.4684 101.788 20.2725C102.165 20.9729 102.728 21.5566 103.415 21.96C104.151 22.3951 105.003 22.5965 105.856 22.5375C106.331 22.5077 106.796 22.3967 107.233 22.2094C108.147 21.816 108.901 21.1255 109.372 20.25C109.801 19.436 110.013 18.5256 109.989 17.6063C110.013 16.6988 109.801 15.8006 109.372 15V15ZM157.458 11.3306C157.483 11.359 157.516 11.3791 157.553 11.3884C157.59 11.3977 157.628 11.3957 157.664 11.3827C157.699 11.3698 157.73 11.3464 157.752 11.3157C157.774 11.285 157.786 11.2484 157.787 11.2106V4.125C157.787 4.02554 157.827 3.93016 157.897 3.85984C157.968 3.78951 158.063 3.75 158.163 3.75H161.624C161.724 3.75 161.82 3.78951 161.89 3.85984C161.96 3.93016 162 4.02554 162 4.125V25.605C162 25.7045 161.96 25.7998 161.89 25.8702C161.82 25.9405 161.724 25.98 161.624 25.98H158.163C158.063 25.98 157.968 25.9405 157.897 25.8702C157.827 25.7998 157.787 25.7045 157.787 25.605V24.1463C157.787 24.1081 157.775 24.0709 157.753 24.0398C157.73 24.0086 157.699 23.9849 157.663 23.9719C157.627 23.9589 157.588 23.9571 157.551 23.9668C157.514 23.9765 157.481 23.9972 157.456 24.0263C156.918 24.6372 156.271 25.1421 155.546 25.515C154.534 26.0231 153.413 26.2755 152.28 26.25C150.914 26.2666 149.572 25.8911 148.414 25.1681C147.239 24.4242 146.291 23.3713 145.676 22.125C144.982 20.7205 144.636 19.1701 144.667 17.6044C144.667 15.9019 145.003 14.4019 145.676 13.1044C146.294 11.8768 147.242 10.8452 148.414 10.125C149.579 9.42057 150.918 9.05615 152.28 9.07313C153.414 9.05161 154.536 9.30919 155.546 9.82313C156.276 10.1957 156.926 10.7079 157.458 11.3306V11.3306ZM148.97 17.5988C148.946 18.5183 149.159 19.4286 149.588 20.2425C150.057 21.1253 150.813 21.8223 151.731 22.2188C152.167 22.4062 152.633 22.5172 153.106 22.5469C153.96 22.6055 154.812 22.4041 155.548 21.9694C156.234 21.5659 156.796 20.9822 157.173 20.2819C157.599 19.4777 157.811 18.5777 157.789 17.6681C157.811 16.7586 157.599 15.8585 157.173 15.0544C156.796 14.354 156.234 13.7703 155.548 13.3669C154.896 12.9819 154.153 12.7791 153.396 12.78C152.632 12.7731 151.88 12.9671 151.215 13.3425C150.53 13.7341 149.966 14.3079 149.588 15C149.16 15.7982 148.947 16.6937 148.97 17.5988V17.5988ZM121.525 12.7913C121.475 12.7913 121.427 12.811 121.392 12.8462C121.357 12.8813 121.337 12.929 121.337 12.9788V20.8425C121.337 21.405 121.472 21.81 121.743 22.0594C122.013 22.3088 122.47 22.4344 123.112 22.4344H124.694C124.793 22.4344 124.889 22.4739 124.959 22.5442C125.03 22.6145 125.069 22.7099 125.069 22.8094V25.605C125.069 25.7045 125.03 25.7998 124.959 25.8702C124.889 25.9405 124.793 25.98 124.694 25.98H122.421C118.868 25.98 117.093 24.2575 117.094 20.8125V12.9788C117.094 12.929 117.074 12.8813 117.039 12.8462C117.004 12.811 116.956 12.7913 116.906 12.7913H115.484C115.385 12.7913 115.289 12.7517 115.219 12.6814C115.148 12.6111 115.109 12.5157 115.109 12.4163V9.7125C115.109 9.61305 115.148 9.51766 115.219 9.44734C115.289 9.37701 115.385 9.3375 115.484 9.3375H116.906C116.956 9.3375 117.004 9.31775 117.039 9.28258C117.074 9.24742 117.094 9.19973 117.094 9.15V5.59688C117.094 5.49742 117.134 5.40204 117.204 5.33171C117.275 5.26138 117.37 5.22188 117.47 5.22188H120.961C121.061 5.22188 121.157 5.26138 121.227 5.33171C121.298 5.40204 121.337 5.49742 121.337 5.59688V9.15C121.337 9.19973 121.357 9.24742 121.392 9.28258C121.427 9.31775 121.475 9.3375 121.525 9.3375H124.694C124.793 9.3375 124.889 9.37701 124.959 9.44734C125.03 9.51766 125.069 9.61305 125.069 9.7125V12.4163C125.069 12.5157 125.03 12.6111 124.959 12.6814C124.889 12.7517 124.793 12.7913 124.694 12.7913H121.525Z" fill="#020452"/>
</svg>
